<svg id="MRI_logo_rgb" xmlns="http://www.w3.org/2000/svg" width="119.25" height="119.25" viewBox="0 0 119.25 119.25">
  <metadata><?xpacket begin="﻿" id="W5M0MpCehiHzreSzNTczkc9d"?>
<x:xmpmeta xmlns:x="adobe:ns:meta/" x:xmptk="Adobe XMP Core 5.6-c142 79.160924, 2017/07/13-01:06:39        ">
   <rdf:RDF xmlns:rdf="http://www.w3.org/1999/02/22-rdf-syntax-ns#">
      <rdf:Description rdf:about=""/>
   </rdf:RDF>
</x:xmpmeta>
                                                                                                    
                                                                                                    
                                                                                                    
                                                                                                    
                                                                                                    
                                                                                                    
                                                                                                    
                                                                                                    
                                                                                                    
                                                                                                    
                                                                                                    
                                                                                                    
                                                                                                    
                                                                                                    
                                                                                                    
                                                                                                    
                                                                                                    
                                                                                                    
                                                                                                    
                                                                                                    
                           
<?xpacket end="w"?></metadata>
<defs>
    <style>
      .cls-1 {
        fill: #fff;
        fill-rule: evenodd;
      }
    </style>
  </defs>
  <g id="Group">
    <path id="Shape" class="cls-1" d="M2819.49,4623.33h7.92l32.23-55.73,2.78,4.88,4.02-6.86-6.8-11.75Z" transform="translate(-2819.5 -4547.5)"/>
    <path id="Shape-2" data-name="Shape" class="cls-1" d="M2917.78,4614.48l-21.96-38.04-3.95,6.87,18,31.17h7.91Z" transform="translate(-2819.5 -4547.5)"/>
    <path id="Shape-3" data-name="Shape" class="cls-1" d="M2879.12,4547.49l-43.73,75.84h31.05l11.51-20.04-3.9-6.81-11.5,19.92h-15.28l31.85-55.11,6.5,11.19,3.96-6.86Z" transform="translate(-2819.5 -4547.5)"/>
    <path id="Shape-4" data-name="Shape" class="cls-1" d="M2880.24,4585.66l4.02,6.93,14.41-24.99,28.14,48.8h-31.05l-23.13-39.96-3.96,6.87,23.07,40.02h47.01l-40.08-69.46Z" transform="translate(-2819.5 -4547.5)"/>
  </g>
  <g id="Group-2" data-name="Group">
    <path id="Shape-5" data-name="Shape" class="cls-1" d="M2861.62,4637.56a3.554,3.554,0,0,1-2.48,1.05,3.146,3.146,0,0,1-2.41-1.05,3.345,3.345,0,0,1-.62-2.42v-5.5h0.68v5.38a3.494,3.494,0,0,0,.44,2.17,2.692,2.692,0,0,0,3.83,0,3.561,3.561,0,0,0,.43-2.17v-5.38h0.75v5.5a3.418,3.418,0,0,1-.62,2.42" transform="translate(-2819.5 -4547.5)"/>
    <path id="Shape-6" data-name="Shape" class="cls-1" d="M2889.89,4630.26h2.22v8.22h0.75v-8.22h2.28v-0.68h-5.25v0.68Z" transform="translate(-2819.5 -4547.5)"/>
    <path id="Shape-7" data-name="Shape" class="cls-1" d="M2845.72,4634.03a3.9,3.9,0,1,0-3.9,3.9,3.964,3.964,0,0,0,3.9-3.9m-3.9-4.58a4.58,4.58,0,1,1-4.63,4.58,4.7,4.7,0,0,1,4.63-4.58" transform="translate(-2819.5 -4547.5)"/>
    <path id="Shape-8" data-name="Shape" class="cls-1" d="M2879.8,4637.06l-7.17-7.61-0.19-.12v9.15h0.74v-7.42l7.3,7.8v-9.28h-0.68v7.48Z" transform="translate(-2819.5 -4547.5)"/>
    <path id="Shape-9" data-name="Shape" class="cls-1" d="M2930.71,4638.48h0.68v-7.42l7.36,7.8v-9.28h-0.74v7.48l-7.3-7.73v9.15Z" transform="translate(-2819.5 -4547.5)"/>
    <path id="Shape-10" data-name="Shape" class="cls-1" d="M2920.56,4629.58h-0.86v8.9h0.86v-8.9Z" transform="translate(-2819.5 -4547.5)"/>
    <path id="Shape-11" data-name="Shape" class="cls-1" d="M2908.2,4634.9h-3.16l1.61-3.9Zm-1.49-5.57-0.06-.19-3.71,9.22-0.06.12h0.74l1.17-2.84h3.71l1.18,2.84v0.07h0.74Z" transform="translate(-2819.5 -4547.5)"/>
    <path id="Shape-12" data-name="Shape" class="cls-1" d="M2819.49,4638.79h1.67l0.87-5.19,2.47,5.75,2.48-5.75,0.86,5.19h1.61l-1.91-10.26-3.04,7.11-3.03-7.11Z" transform="translate(-2819.5 -4547.5)"/>
    <path id="Shape-13" data-name="Shape" class="cls-1" d="M2921.25,4651.41a4.557,4.557,0,0,1-7.55-3.46,4.618,4.618,0,0,1,4.64-4.58,4.366,4.366,0,0,1,2.97,1.18h0v1.05l-0.12-.19a3.834,3.834,0,0,0-2.85-1.36,4.024,4.024,0,0,0-3.9,3.96,3.67,3.67,0,0,0,1.12,2.66,4.022,4.022,0,0,0,2.72,1.18,4.088,4.088,0,0,0,2.84-1.3l0.13-.19v1.05h0Z" transform="translate(-2819.5 -4547.5)"/>
    <path id="Shape-14" data-name="Shape" class="cls-1" d="M2938.01,4643.56v3.65h-5.13v-3.65h-0.68v8.9h0.68v-4.51h5.13v4.51h0.74v-8.9h-0.74Z" transform="translate(-2819.5 -4547.5)"/>
    <path id="Shape-15" data-name="Shape" class="cls-1" d="M2866.01,4652.46h4.33v-0.74h-3.59v-3.83h3.53v-0.68h-3.53v-2.97h3.59v-0.68h-4.33v8.9Z" transform="translate(-2819.5 -4547.5)"/>
    <path id="Shape-16" data-name="Shape" class="cls-1" d="M2854.13,4648.13a1.667,1.667,0,0,1,.93,1.74,2.749,2.749,0,0,1-2.84,2.59,2.779,2.779,0,0,1-2.66-1.91v-0.07l0.62-.31,0.06,0.07a2.154,2.154,0,0,0,2.04,1.54,2,2,0,0,0,2.04-1.98c0-.86-0.8-1.23-1.55-1.6l-0.18-.07-1.61-.86a1.971,1.971,0,0,1-.93-1.67,2.227,2.227,0,0,1,2.35-2.29,2.659,2.659,0,0,1,2.23,1.3l0.06,0.06-0.49.43-0.07-.06a1.759,1.759,0,0,0-1.67-.99,1.582,1.582,0,0,0-1.54,1.61c0,0.87.8,1.24,1.48,1.55l0.06,0.06,1.67,0.86" transform="translate(-2819.5 -4547.5)"/>
    <path id="Shape-17" data-name="Shape" class="cls-1" d="M2882.96,4648.88l1.61-3.9,1.6,3.9h-3.21Zm-0.25.68h3.71l1.18,2.84v0.06h0.74l-3.77-9.34-3.78,9.34h0.75Z" transform="translate(-2819.5 -4547.5)"/>
    <path id="Shape-18" data-name="Shape" class="cls-1" d="M2835.02,4652.46h4.33v-0.74h-3.59v-3.83h3.53v-0.68h-3.53v-2.97h3.59v-0.68h-4.33v8.9Z" transform="translate(-2819.5 -4547.5)"/>
    <path id="Shape-19" data-name="Shape" class="cls-1" d="M2903,4645.91a1.667,1.667,0,0,0-.8-1.55,3.718,3.718,0,0,0-1.43-.19h-0.43v3.41h0.62a2.059,2.059,0,0,0,1.48-.37,1.616,1.616,0,0,0,.56-1.3m0.12,1.73a3.152,3.152,0,0,1-1.79.74l2.84,4.15h-0.86l-2.85-4.15h-0.12v4.15h-0.74v-8.91h1.17a3.411,3.411,0,0,1,2.04.43,2.5,2.5,0,0,1,.31,3.59" transform="translate(-2819.5 -4547.5)"/>
    <path id="Shape-20" data-name="Shape" class="cls-1" d="M2823.51,4646.15c0-.92-0.61-1.29-2.04-1.29h-0.06v2.66h0.06c1.43,0,2.04-.44,2.04-1.37m1.55-.06a2.7,2.7,0,0,1-1.85,2.66l2.84,3.9h-1.98l-2.6-3.71h-0.06v3.71h-1.61v-9.28h1.55a4.909,4.909,0,0,1,2.41.43,2.55,2.55,0,0,1,1.3,2.29" transform="translate(-2819.5 -4547.5)"/>
    <path id="Shape-21" data-name="Shape" class="cls-1" d="M2895.76,4657.35v0.74h2.29v8.17h0.68v-8.17h2.29v-0.74h-5.26Z" transform="translate(-2819.5 -4547.5)"/>
    <path id="Shape-22" data-name="Shape" class="cls-1" d="M2909.8,4666.26h0.86v-8.91h-0.86v8.91Z" transform="translate(-2819.5 -4547.5)"/>
    <path id="Shape-23" data-name="Shape" class="cls-1" d="M2925.02,4657.35l-2.54,7.36-2.53-7.3v-0.06h-0.74l3.21,9.4,3.28-9.28,0.06-.12h-0.74Z" transform="translate(-2819.5 -4547.5)"/>
    <path id="Shape-24" data-name="Shape" class="cls-1" d="M2934.42,4657.35v8.91h4.33v-0.68h-3.59v-3.84h3.47v-0.68h-3.47v-2.97h3.59v-0.74h-4.33Z" transform="translate(-2819.5 -4547.5)"/>
    <path id="Shape-25" data-name="Shape" class="cls-1" d="M2884.81,4658.83l1.55,3.9h-3.15Zm-3.77,7.43h0.74l1.18-2.85h3.71l1.17,2.85v0.06h0.75l-3.78-9.34Z" transform="translate(-2819.5 -4547.5)"/>
    <path id="Shape-26" data-name="Shape" class="cls-1" d="M2857.54,4657.35v0.74h2.28v8.17h0.68v-8.17h2.29v-0.74h-5.25Z" transform="translate(-2819.5 -4547.5)"/>
    <path id="Shape-27" data-name="Shape" class="cls-1" d="M2871.58,4666.26h0.85v-8.91h-0.85v8.91Z" transform="translate(-2819.5 -4547.5)"/>
    <path id="Shape-28" data-name="Shape" class="cls-1" d="M2830.26,4666.26H2831v-7.36l7.17,7.67,0.13,0.12v-9.34h-0.74v7.55l-7.3-7.8v9.16Z" transform="translate(-2819.5 -4547.5)"/>
    <path id="Shape-29" data-name="Shape" class="cls-1" d="M2848.57,4666.26h0.85v-8.91h-0.85v8.91Z" transform="translate(-2819.5 -4547.5)"/>
    <path id="Shape-30" data-name="Shape" class="cls-1" d="M2819.8,4666.44h1.61v-9.21h-1.61v9.21Z" transform="translate(-2819.5 -4547.5)"/>
  </g>
</svg>